<?xml version="1.0" encoding="UTF-8"?>
<svg id="Layer_2" data-name="Layer 2" xmlns="http://www.w3.org/2000/svg" xmlns:xlink="http://www.w3.org/1999/xlink" viewBox="0 0 892.68 200">
  <defs>
    <style>
      .cls-1 {
        fill: #fff;
      }

      .cls-2 {
        fill: url(#New_Gradient_Swatch_1);
      }
    </style>
    <linearGradient id="New_Gradient_Swatch_1" data-name="New Gradient Swatch 1" x1="110.9" y1="0" x2="110.9" y2="200" gradientUnits="userSpaceOnUse">
      <stop offset="0" stop-color="#8dc63f"/>
      <stop offset="1" stop-color="#39b54a"/>
    </linearGradient>
  </defs>
  <g id="Layer_1-2" data-name="Layer 1">
    <g>
      <path class="cls-2" d="M56.44,22.22H0V0h56.44v22.22ZM56.44,44.44H0v22.22h56.44v-22.22ZM56.44,88.89H0v22.22h56.44v-22.22ZM56.44,133.33H0v22.22h56.44v-22.22ZM56.44,177.78H0v22.22h56.44v-22.22ZM141.11,133.33h-56.44v22.22h56.44v-22.22ZM141.11,177.78h-56.44v22.22h56.44v-22.22ZM221.8,44.44h-56.44v22.22h56.44v-22.22ZM221.8,88.89h-56.44v22.22h56.44v-22.22ZM221.8,133.33h-56.44v22.22h56.44v-22.22ZM221.8,177.78h-56.44v22.22h56.44v-22.22Z"/>
      <g>
        <path class="cls-1" d="M356.83,97.52h26.84l-12.58,80.26h-33.51l-5.91-29.53h-1.54l-5.78,29.53h-33.51l-12.58-80.26h26.84l6.04,44.82h.77l9.25-44.82h19.65l9.12,44.82h.77l6.16-44.82Z"/>
        <path class="cls-1" d="M386.24,137.71c0-14.64,2.74-25.32,8.22-32.04,5.48-6.72,15.37-10.08,29.66-10.08s24.18,3.36,29.66,10.08c5.48,6.72,8.22,17.4,8.22,32.04,0,7.28-.58,13.4-1.73,18.36-1.16,4.97-3.15,9.29-5.97,12.97-2.83,3.68-6.72,6.38-11.69,8.09-4.96,1.71-11.13,2.57-18.49,2.57s-13.53-.86-18.49-2.57c-4.97-1.71-8.86-4.41-11.68-8.09-2.83-3.68-4.82-8-5.97-12.97-1.16-4.96-1.73-11.08-1.73-18.36ZM413.84,124.36v33.39h10.66c3.51,0,6.05-.41,7.64-1.22,1.58-.81,2.38-2.67,2.38-5.59v-33.39h-10.79c-3.42,0-5.93.41-7.51,1.22-1.58.81-2.38,2.68-2.38,5.59Z"/>
        <path class="cls-1" d="M540.97,177.78h-28.25l-10.53-23.88h-5.52v23.88h-25.68v-80.26h40.45c18.4,0,27.61,9.37,27.61,28.12,0,12.84-3.98,21.32-11.94,25.42l13.87,26.71ZM496.67,118.07v16.05h5.91c3.08,0,5.33-.32,6.74-.96,1.41-.64,2.12-2.12,2.12-4.43v-5.27c0-2.31-.71-3.79-2.12-4.43s-3.66-.96-6.74-.96h-5.91Z"/>
        <path class="cls-1" d="M549.95,177.78v-80.26h35.95c14.47,0,24.4,3.08,29.79,9.25,5.39,6.16,8.09,16.46,8.09,30.88s-2.7,24.72-8.09,30.88c-5.39,6.16-15.33,9.25-29.79,9.25h-35.95ZM586.29,118.07h-10.66v39.16h10.66c3.51,0,6.05-.41,7.64-1.22,1.58-.81,2.38-2.67,2.38-5.59v-25.55c0-2.91-.79-4.77-2.38-5.59-1.58-.81-4.13-1.22-7.64-1.22Z"/>
        <path class="cls-1" d="M675.15,158.39h-16.69v19.39h-25.68v-80.26h40.45c18.4,0,27.61,9.89,27.61,29.66,0,10.87-2.4,18.92-7.19,24.14-1.8,1.97-4.28,3.64-7.45,5.01-3.17,1.37-6.85,2.05-11.04,2.05ZM658.46,118.07v19.77h5.91c3.08,0,5.33-.32,6.74-.96,1.41-.64,2.12-2.12,2.12-4.43v-8.99c0-2.31-.71-3.79-2.12-4.43s-3.66-.96-6.74-.96h-5.91Z"/>
        <path class="cls-1" d="M759.9,177.78h-51.36v-80.26h25.68v59.71h25.68v20.55Z"/>
        <path class="cls-1" d="M775.82,177.78h-27.09l20.8-80.26h39.68l20.8,80.26h-27.1l-2.95-12.71h-21.19l-2.95,12.71ZM788.67,122.18l-5.27,22.47h11.81l-5.14-22.47h-1.41Z"/>
        <path class="cls-1" d="M849.14,97.52l7.06,28.25h.9l7.19-28.25h28.38l-23.11,58.43v21.83h-25.68v-21.83l-23.11-58.43h28.38Z"/>
      </g>
    </g>
  </g>
</svg>